<mxfile host="65bd71144e">
    <diagram id="JG5CXoz_JGgFZzyh0FM6" name="Page-1">
        <mxGraphModel dx="999" dy="652" grid="1" gridSize="10" guides="1" tooltips="1" connect="1" arrows="1" fold="1" page="1" pageScale="1" pageWidth="827" pageHeight="1169" background="#FFFFFF" math="0" shadow="0">
            <root>
                <mxCell id="0"/>
                <mxCell id="1" parent="0"/>
                <mxCell id="56" value="" style="group" parent="1" vertex="1" connectable="0">
                    <mxGeometry x="131" y="110" width="680" height="800" as="geometry"/>
                </mxCell>
                <mxCell id="2" value="" style="rounded=0;whiteSpace=wrap;html=1;" parent="56" vertex="1">
                    <mxGeometry x="-90" y="420" width="750" height="380" as="geometry"/>
                </mxCell>
                <mxCell id="6" value="Stundenplan" style="swimlane;fontStyle=0;childLayout=stackLayout;horizontal=1;startSize=30;horizontalStack=0;resizeParent=1;resizeParentMax=0;resizeLast=0;collapsible=1;marginBottom=0;" parent="56" vertex="1">
                    <mxGeometry x="-45.5" y="670" width="160" height="99" as="geometry"/>
                </mxCell>
                <mxCell id="7" value="-modulListe: List&lt;Module&gt;" style="text;strokeColor=none;fillColor=none;align=left;verticalAlign=middle;spacingLeft=4;spacingRight=4;overflow=hidden;points=[[0,0.5],[1,0.5]];portConstraint=eastwest;rotatable=0;" parent="6" vertex="1">
                    <mxGeometry y="30" width="160" height="23" as="geometry"/>
                </mxCell>
                <mxCell id="30" value="-semZahl:int" style="text;strokeColor=none;fillColor=none;align=left;verticalAlign=middle;spacingLeft=4;spacingRight=4;overflow=hidden;points=[[0,0.5],[1,0.5]];portConstraint=eastwest;rotatable=0;" parent="6" vertex="1">
                    <mxGeometry y="53" width="160" height="23" as="geometry"/>
                </mxCell>
                <mxCell id="31" value="-stundenplanLayout" style="text;strokeColor=none;fillColor=none;align=left;verticalAlign=middle;spacingLeft=4;spacingRight=4;overflow=hidden;points=[[0,0.5],[1,0.5]];portConstraint=eastwest;rotatable=0;" parent="6" vertex="1">
                    <mxGeometry y="76" width="160" height="23" as="geometry"/>
                </mxCell>
                <mxCell id="104" value="" style="edgeStyle=none;html=1;endArrow=diamondThin;endFill=1;" parent="56" source="10" edge="1">
                    <mxGeometry relative="1" as="geometry">
                        <mxPoint x="336" y="550" as="targetPoint"/>
                    </mxGeometry>
                </mxCell>
                <mxCell id="10" value="Module" style="swimlane;fontStyle=0;childLayout=stackLayout;horizontal=1;startSize=30;horizontalStack=0;resizeParent=1;resizeParentMax=0;resizeLast=0;collapsible=1;marginBottom=0;" parent="56" vertex="1">
                    <mxGeometry x="259" y="580" width="180" height="191" as="geometry"/>
                </mxCell>
                <mxCell id="11" value="-lehrVeranst: List&lt;LehrVeranst&gt;" style="text;strokeColor=none;fillColor=none;align=left;verticalAlign=middle;spacingLeft=4;spacingRight=4;overflow=hidden;points=[[0,0.5],[1,0.5]];portConstraint=eastwest;rotatable=0;" parent="10" vertex="1">
                    <mxGeometry y="30" width="180" height="23" as="geometry"/>
                </mxCell>
                <mxCell id="15" value="-name: String" style="text;strokeColor=none;fillColor=none;align=left;verticalAlign=middle;spacingLeft=4;spacingRight=4;overflow=hidden;points=[[0,0.5],[1,0.5]];portConstraint=eastwest;rotatable=0;" parent="10" vertex="1">
                    <mxGeometry y="53" width="180" height="23" as="geometry"/>
                </mxCell>
                <mxCell id="16" value="-cp: int" style="text;strokeColor=none;fillColor=none;align=left;verticalAlign=middle;spacingLeft=4;spacingRight=4;overflow=hidden;points=[[0,0.5],[1,0.5]];portConstraint=eastwest;rotatable=0;" parent="10" vertex="1">
                    <mxGeometry y="76" width="180" height="23" as="geometry"/>
                </mxCell>
                <mxCell id="17" value="-AbhÃ¤ngigkeiten:List&lt;Module&gt;" style="text;strokeColor=none;fillColor=none;align=left;verticalAlign=middle;spacingLeft=4;spacingRight=4;overflow=hidden;points=[[0,0.5],[1,0.5]];portConstraint=eastwest;rotatable=0;" parent="10" vertex="1">
                    <mxGeometry y="99" width="180" height="23" as="geometry"/>
                </mxCell>
                <mxCell id="22" value="-note:double" style="text;strokeColor=none;fillColor=none;align=left;verticalAlign=middle;spacingLeft=4;spacingRight=4;overflow=hidden;points=[[0,0.5],[1,0.5]];portConstraint=eastwest;rotatable=0;" parent="10" vertex="1">
                    <mxGeometry y="122" width="180" height="23" as="geometry"/>
                </mxCell>
                <mxCell id="23" value="fachSem:int" style="text;strokeColor=none;fillColor=none;align=left;verticalAlign=middle;spacingLeft=4;spacingRight=4;overflow=hidden;points=[[0,0.5],[1,0.5]];portConstraint=eastwest;rotatable=0;" parent="10" vertex="1">
                    <mxGeometry y="145" width="180" height="23" as="geometry"/>
                </mxCell>
                <mxCell id="81" value="bestanden:bool" style="text;strokeColor=none;fillColor=none;align=left;verticalAlign=middle;spacingLeft=4;spacingRight=4;overflow=hidden;points=[[0,0.5],[1,0.5]];portConstraint=eastwest;rotatable=0;" parent="10" vertex="1">
                    <mxGeometry y="168" width="180" height="23" as="geometry"/>
                </mxCell>
                <mxCell id="28" value="" style="edgeStyle=none;html=1;entryX=0;entryY=0.5;entryDx=0;entryDy=0;startArrow=diamondThin;startFill=1;endArrow=none;endFill=0;exitX=1.016;exitY=0.845;exitDx=0;exitDy=0;exitPerimeter=0;" parent="56" source="31" target="81" edge="1">
                    <mxGeometry relative="1" as="geometry"/>
                </mxCell>
                <mxCell id="12" value="LehrVeranst" style="swimlane;fontStyle=0;childLayout=stackLayout;horizontal=1;startSize=30;horizontalStack=0;resizeParent=1;resizeParentMax=0;resizeLast=0;collapsible=1;marginBottom=0;" parent="56" vertex="1">
                    <mxGeometry x="466" y="600" width="170" height="122" as="geometry"/>
                </mxCell>
                <mxCell id="13" value="-name:String" style="text;strokeColor=none;fillColor=none;align=left;verticalAlign=middle;spacingLeft=4;spacingRight=4;overflow=hidden;points=[[0,0.5],[1,0.5]];portConstraint=eastwest;rotatable=0;" parent="12" vertex="1">
                    <mxGeometry y="30" width="170" height="23" as="geometry"/>
                </mxCell>
                <mxCell id="18" value="-lvNr:int" style="text;strokeColor=none;fillColor=none;align=left;verticalAlign=middle;spacingLeft=4;spacingRight=4;overflow=hidden;points=[[0,0.5],[1,0.5]];portConstraint=eastwest;rotatable=0;" parent="12" vertex="1">
                    <mxGeometry y="53" width="170" height="23" as="geometry"/>
                </mxCell>
                <mxCell id="19" value="note:double" style="text;strokeColor=none;fillColor=none;align=left;verticalAlign=middle;spacingLeft=4;spacingRight=4;overflow=hidden;points=[[0,0.5],[1,0.5]];portConstraint=eastwest;rotatable=0;" parent="12" vertex="1">
                    <mxGeometry y="76" width="170" height="23" as="geometry"/>
                </mxCell>
                <mxCell id="20" value="Dozent:String" style="text;strokeColor=none;fillColor=none;align=left;verticalAlign=middle;spacingLeft=4;spacingRight=4;overflow=hidden;points=[[0,0.5],[1,0.5]];portConstraint=eastwest;rotatable=0;" parent="12" vertex="1">
                    <mxGeometry y="99" width="170" height="23" as="geometry"/>
                </mxCell>
                <mxCell id="29" value="" style="edgeStyle=none;html=1;entryX=0;entryY=0.5;entryDx=0;entryDy=0;startArrow=diamondThin;startFill=1;endArrow=none;endFill=0;" parent="56" source="16" target="18" edge="1">
                    <mxGeometry relative="1" as="geometry"/>
                </mxCell>
                <mxCell id="32" value="Datenhaltung" style="text;html=1;strokeColor=none;fillColor=none;align=center;verticalAlign=middle;whiteSpace=wrap;rounded=0;" parent="56" vertex="1">
                    <mxGeometry x="96" y="430" width="143" height="30" as="geometry"/>
                </mxCell>
                <mxCell id="90" value="PlanController" style="rounded=0;whiteSpace=wrap;html=1;" parent="56" vertex="1">
                    <mxGeometry x="-64" y="170" width="120" height="30" as="geometry"/>
                </mxCell>
                <mxCell id="92" value="ModulController" style="rounded=0;whiteSpace=wrap;html=1;" parent="56" vertex="1">
                    <mxGeometry x="506" y="170" width="120" height="30" as="geometry"/>
                </mxCell>
                <mxCell id="95" value="&amp;lt;&amp;lt;observe&amp;gt;&amp;gt;" style="text;html=1;strokeColor=none;fillColor=none;align=center;verticalAlign=middle;whiteSpace=wrap;rounded=0;" parent="56" vertex="1">
                    <mxGeometry x="126" y="160" width="60" height="30" as="geometry"/>
                </mxCell>
                <mxCell id="96" value="ModulListe" style="swimlane;fontStyle=0;childLayout=stackLayout;horizontal=1;startSize=30;horizontalStack=0;resizeParent=1;resizeParentMax=0;resizeLast=0;collapsible=1;marginBottom=0;" parent="56" vertex="1">
                    <mxGeometry x="226" y="450" width="180" height="99" as="geometry"/>
                </mxCell>
                <mxCell id="97" value="-ModulListe: List&lt;Module&gt;" style="text;strokeColor=none;fillColor=none;align=left;verticalAlign=middle;spacingLeft=4;spacingRight=4;overflow=hidden;points=[[0,0.5],[1,0.5]];portConstraint=eastwest;rotatable=0;" parent="96" vertex="1">
                    <mxGeometry y="30" width="180" height="23" as="geometry"/>
                </mxCell>
                <mxCell id="98" value="-filter(String filter): List&lt;Module&gt;" style="text;strokeColor=none;fillColor=none;align=left;verticalAlign=middle;spacingLeft=4;spacingRight=4;overflow=hidden;points=[[0,0.5],[1,0.5]];portConstraint=eastwest;rotatable=0;" parent="96" vertex="1">
                    <mxGeometry y="53" width="180" height="23" as="geometry"/>
                </mxCell>
                <mxCell id="109" value="-getModul(String name): Modul" style="text;strokeColor=none;fillColor=none;align=left;verticalAlign=middle;spacingLeft=4;spacingRight=4;overflow=hidden;points=[[0,0.5],[1,0.5]];portConstraint=eastwest;rotatable=0;" parent="96" vertex="1">
                    <mxGeometry y="76" width="180" height="23" as="geometry"/>
                </mxCell>
                <mxCell id="112" value="&amp;lt;&amp;lt;observe&amp;gt;&amp;gt;" style="text;html=1;strokeColor=none;fillColor=none;align=center;verticalAlign=middle;whiteSpace=wrap;rounded=0;" parent="56" vertex="1">
                    <mxGeometry x="310" y="160" width="60" height="30" as="geometry"/>
                </mxCell>
                <mxCell id="111" value="&amp;lt;&amp;lt;observe&amp;gt;&amp;gt;" style="text;html=1;strokeColor=none;fillColor=none;align=center;verticalAlign=middle;whiteSpace=wrap;rounded=0;" parent="56" vertex="1">
                    <mxGeometry x="436" y="160" width="60" height="30" as="geometry"/>
                </mxCell>
                <mxCell id="66" value="&lt;&lt;interface&gt;&gt;&#10;ModulInterface" style="swimlane;fontStyle=0;childLayout=stackLayout;horizontal=1;startSize=30;horizontalStack=0;resizeParent=1;resizeParentMax=0;resizeLast=0;collapsible=1;marginBottom=0;" parent="56" vertex="1">
                    <mxGeometry x="456" y="230" width="220" height="90" as="geometry"/>
                </mxCell>
                <mxCell id="68" value="createModul(attributes)" style="text;strokeColor=none;fillColor=none;align=left;verticalAlign=middle;spacingLeft=4;spacingRight=4;overflow=hidden;points=[[0,0.5],[1,0.5]];portConstraint=eastwest;rotatable=0;" parent="66" vertex="1">
                    <mxGeometry y="30" width="220" height="30" as="geometry"/>
                </mxCell>
                <mxCell id="69" value="editModul(Modul m, attributes)" style="text;strokeColor=none;fillColor=none;align=left;verticalAlign=middle;spacingLeft=4;spacingRight=4;overflow=hidden;points=[[0,0.5],[1,0.5]];portConstraint=eastwest;rotatable=0;" parent="66" vertex="1">
                    <mxGeometry y="60" width="220" height="30" as="geometry"/>
                </mxCell>
                <mxCell id="82" value="" style="edgeStyle=none;html=1;dashed=1;entryX=1;entryY=0.5;entryDx=0;entryDy=0;startArrow=block;startFill=0;endArrow=none;endFill=0;" parent="56" source="66" target="97" edge="1">
                    <mxGeometry relative="1" as="geometry"/>
                </mxCell>
                <mxCell id="93" value="" style="edgeStyle=none;html=1;entryX=0.5;entryY=0;entryDx=0;entryDy=0;" parent="56" source="92" target="66" edge="1">
                    <mxGeometry relative="1" as="geometry"/>
                </mxCell>
                <mxCell id="119" value="StundenplanVerwaltung" style="swimlane;fontStyle=0;childLayout=stackLayout;horizontal=1;startSize=30;horizontalStack=0;resizeParent=1;resizeParentMax=0;resizeLast=0;collapsible=1;marginBottom=0;" vertex="1" parent="56">
                    <mxGeometry x="-60" y="520" width="189" height="122" as="geometry"/>
                </mxCell>
                <mxCell id="120" value="- getStundenpan() : Stundenplan" style="text;strokeColor=none;fillColor=none;align=left;verticalAlign=middle;spacingLeft=4;spacingRight=4;overflow=hidden;points=[[0,0.5],[1,0.5]];portConstraint=eastwest;rotatable=0;" vertex="1" parent="119">
                    <mxGeometry y="30" width="189" height="23" as="geometry"/>
                </mxCell>
                <mxCell id="121" value="- editModulListe() : void" style="text;strokeColor=none;fillColor=none;align=left;verticalAlign=middle;spacingLeft=4;spacingRight=4;overflow=hidden;points=[[0,0.5],[1,0.5]];portConstraint=eastwest;rotatable=0;" vertex="1" parent="119">
                    <mxGeometry y="53" width="189" height="23" as="geometry"/>
                </mxCell>
                <mxCell id="122" value="- editSemZahl : void" style="text;strokeColor=none;fillColor=none;align=left;verticalAlign=middle;spacingLeft=4;spacingRight=4;overflow=hidden;points=[[0,0.5],[1,0.5]];portConstraint=eastwest;rotatable=0;" vertex="1" parent="119">
                    <mxGeometry y="76" width="189" height="23" as="geometry"/>
                </mxCell>
                <mxCell id="125" value="- editLayout : void" style="text;strokeColor=none;fillColor=none;align=left;verticalAlign=middle;spacingLeft=4;spacingRight=4;overflow=hidden;points=[[0,0.5],[1,0.5]];portConstraint=eastwest;rotatable=0;" vertex="1" parent="119">
                    <mxGeometry y="99" width="189" height="23" as="geometry"/>
                </mxCell>
                <mxCell id="123" value="" style="edgeStyle=none;html=1;entryX=0.5;entryY=0;entryDx=0;entryDy=0;startArrow=diamondThin;startFill=1;endArrow=none;endFill=0;exitX=0.481;exitY=1.08;exitDx=0;exitDy=0;exitPerimeter=0;" edge="1" parent="56" source="125" target="6">
                    <mxGeometry relative="1" as="geometry">
                        <mxPoint x="148.55999999999995" y="755.435" as="sourcePoint"/>
                        <mxPoint x="269" y="769.5" as="targetPoint"/>
                    </mxGeometry>
                </mxCell>
                <mxCell id="124" value="" style="endArrow=classic;html=1;exitX=1;exitY=0.5;exitDx=0;exitDy=0;entryX=0;entryY=0.25;entryDx=0;entryDy=0;" edge="1" parent="56" source="120" target="96">
                    <mxGeometry width="50" height="50" relative="1" as="geometry">
                        <mxPoint x="229" y="580" as="sourcePoint"/>
                        <mxPoint x="279" y="530" as="targetPoint"/>
                    </mxGeometry>
                </mxCell>
                <mxCell id="33" value="" style="rounded=0;whiteSpace=wrap;html=1;" parent="1" vertex="1">
                    <mxGeometry x="129" y="40" width="564" height="210" as="geometry"/>
                </mxCell>
                <mxCell id="52" value="GUI-Schicht" style="text;html=1;strokeColor=none;fillColor=none;align=center;verticalAlign=middle;whiteSpace=wrap;rounded=0;" parent="1" vertex="1">
                    <mxGeometry x="359" y="50" width="78" height="30" as="geometry"/>
                </mxCell>
                <mxCell id="54" value="" style="rounded=0;whiteSpace=wrap;html=1;" parent="1" vertex="1">
                    <mxGeometry x="153" y="80" width="500" height="140" as="geometry"/>
                </mxCell>
                <mxCell id="55" value="MainView" style="text;html=1;strokeColor=none;fillColor=none;align=center;verticalAlign=middle;whiteSpace=wrap;rounded=0;" parent="1" vertex="1">
                    <mxGeometry x="347.1809090909091" y="90.00444444444446" width="101.81818181818181" height="43.333333333333336" as="geometry"/>
                </mxCell>
                <mxCell id="76" value="" style="group" parent="1" vertex="1" connectable="0">
                    <mxGeometry x="517" y="140" width="101" height="40" as="geometry"/>
                </mxCell>
                <mxCell id="62" value="" style="rounded=0;whiteSpace=wrap;html=1;" parent="76" vertex="1">
                    <mxGeometry width="101" height="40" as="geometry"/>
                </mxCell>
                <mxCell id="63" value="ModulEditView" style="text;html=1;strokeColor=none;fillColor=none;align=center;verticalAlign=middle;whiteSpace=wrap;rounded=0;" parent="76" vertex="1">
                    <mxGeometry x="33.087816091954025" y="15.858620689655172" width="34.82758620689655" height="8.275862068965516" as="geometry"/>
                </mxCell>
                <mxCell id="75" value="" style="group" parent="1" vertex="1" connectable="0">
                    <mxGeometry x="199" y="150" width="90.41" height="40" as="geometry"/>
                </mxCell>
                <mxCell id="57" value="" style="rounded=0;whiteSpace=wrap;html=1;" parent="75" vertex="1">
                    <mxGeometry width="90.41" height="40" as="geometry"/>
                </mxCell>
                <mxCell id="60" value="PlanView" style="text;html=1;strokeColor=none;fillColor=none;align=center;verticalAlign=middle;whiteSpace=wrap;rounded=0;" parent="75" vertex="1">
                    <mxGeometry x="32.25624391408112" y="15.55777777777778" width="25.89307875894988" height="8.88888888888889" as="geometry"/>
                </mxCell>
                <mxCell id="94" value="" style="edgeStyle=none;html=1;entryX=0.75;entryY=0;entryDx=0;entryDy=0;endArrow=blockThin;endFill=0;" parent="1" source="57" target="119" edge="1">
                    <mxGeometry relative="1" as="geometry"/>
                </mxCell>
                <mxCell id="106" value="ModulListView" style="rounded=0;whiteSpace=wrap;html=1;" parent="1" vertex="1">
                    <mxGeometry x="377" y="140" width="101" height="40" as="geometry"/>
                </mxCell>
                <mxCell id="107" value="" style="endArrow=classic;html=1;exitX=0.5;exitY=1;exitDx=0;exitDy=0;entryX=0.398;entryY=-0.007;entryDx=0;entryDy=0;entryPerimeter=0;" parent="1" source="106" target="96" edge="1">
                    <mxGeometry width="50" height="50" relative="1" as="geometry">
                        <mxPoint x="476" y="328.86" as="sourcePoint"/>
                        <mxPoint x="445.94000000000005" y="580.0000000000001" as="targetPoint"/>
                    </mxGeometry>
                </mxCell>
                <mxCell id="108" value="" style="endArrow=classic;html=1;exitX=0.5;exitY=1;exitDx=0;exitDy=0;entryX=0.926;entryY=0.004;entryDx=0;entryDy=0;entryPerimeter=0;" parent="1" source="62" target="96" edge="1">
                    <mxGeometry width="50" height="50" relative="1" as="geometry">
                        <mxPoint x="447" y="330" as="sourcePoint"/>
                        <mxPoint x="497" y="280" as="targetPoint"/>
                    </mxGeometry>
                </mxCell>
                <mxCell id="115" value="" style="edgeStyle=none;html=1;endArrow=blockThin;endFill=0;entryX=0.25;entryY=1;entryDx=0;entryDy=0;strokeColor=#D4D4D4;" parent="1" source="90" target="57" edge="1">
                    <mxGeometry relative="1" as="geometry"/>
                </mxCell>
                <mxCell id="116" value="" style="edgeStyle=none;html=1;endArrow=blockThin;endFill=0;strokeColor=#D4D4D4;entryX=0.896;entryY=0.988;entryDx=0;entryDy=0;entryPerimeter=0;" parent="1" source="92" target="106" edge="1">
                    <mxGeometry relative="1" as="geometry"/>
                </mxCell>
                <mxCell id="117" value="" style="edgeStyle=none;html=1;endArrow=blockThin;endFill=0;strokeColor=#D4D4D4;entryX=0.75;entryY=1;entryDx=0;entryDy=0;" parent="1" source="92" target="62" edge="1">
                    <mxGeometry relative="1" as="geometry"/>
                </mxCell>
                <mxCell id="70" value="&lt;&lt;interface&gt;&gt;&#10;StundenplanInterface" style="swimlane;fontStyle=0;childLayout=stackLayout;horizontal=1;startSize=30;horizontalStack=0;resizeParent=1;resizeParentMax=0;resizeLast=0;collapsible=1;marginBottom=0;swimlaneLine=0;" parent="1" vertex="1">
                    <mxGeometry y="340" width="234" height="90" as="geometry"/>
                </mxCell>
                <mxCell id="72" value="addModul (int semester, Modul modul)" style="text;strokeColor=none;fillColor=none;align=left;verticalAlign=middle;spacingLeft=4;spacingRight=4;overflow=hidden;points=[[0,0.5],[1,0.5]];portConstraint=eastwest;rotatable=0;" parent="70" vertex="1">
                    <mxGeometry y="30" width="234" height="30" as="geometry"/>
                </mxCell>
                <mxCell id="118" value="removeModul (int semester. Modul modul)" style="text;strokeColor=none;fillColor=none;align=left;verticalAlign=middle;spacingLeft=4;spacingRight=4;overflow=hidden;points=[[0,0.5],[1,0.5]];portConstraint=eastwest;rotatable=0;" parent="70" vertex="1">
                    <mxGeometry y="60" width="234" height="30" as="geometry"/>
                </mxCell>
                <mxCell id="80" value="" style="edgeStyle=none;html=1;dashed=1;entryX=0.25;entryY=0;entryDx=0;entryDy=0;startArrow=block;startFill=0;endArrow=none;endFill=0;" parent="1" source="70" target="119" edge="1">
                    <mxGeometry relative="1" as="geometry"/>
                </mxCell>
                <mxCell id="89" value="" style="edgeStyle=none;html=1;entryX=0.5;entryY=0;entryDx=0;entryDy=0;exitX=0.5;exitY=1;exitDx=0;exitDy=0;" parent="1" source="90" target="70" edge="1">
                    <mxGeometry relative="1" as="geometry">
                        <mxPoint x="233.5999999999999" y="270" as="sourcePoint"/>
                    </mxGeometry>
                </mxCell>
            </root>
        </mxGraphModel>
    </diagram>
</mxfile>